<?xml version="1.0" encoding="UTF-8" standalone="no"?>
<!-- Created with Inkscape (http://www.inkscape.org/) -->

<svg
   width="79.428291mm"
   height="70.854248mm"
   viewBox="0 0 79.428291 70.854248"
   version="1.1"
   id="svg1"
   xml:space="preserve"
   xmlns:inkscape="http://www.inkscape.org/namespaces/inkscape"
   xmlns:sodipodi="http://sodipodi.sourceforge.net/DTD/sodipodi-0.dtd"
   xmlns:xlink="http://www.w3.org/1999/xlink"
   xmlns="http://www.w3.org/2000/svg"
   xmlns:svg="http://www.w3.org/2000/svg"><sodipodi:namedview
     id="namedview1"
     pagecolor="#ffffff"
     bordercolor="#000000"
     borderopacity="0.25"
     inkscape:showpageshadow="2"
     inkscape:pageopacity="0.0"
     inkscape:pagecheckerboard="0"
     inkscape:deskcolor="#d1d1d1"
     inkscape:document-units="mm" /><defs
     id="defs1"><linearGradient
       id="linearGradient8"
       inkscape:collect="always"><stop
         style="stop-color:#969696;stop-opacity:1;"
         offset="0"
         id="stop8" /><stop
         style="stop-color:#494848;stop-opacity:1;"
         offset="0.80396736"
         id="stop9" /></linearGradient><linearGradient
       id="linearGradient3"
       inkscape:collect="always"><stop
         style="stop-color:#ffffff;stop-opacity:0.39885223;"
         offset="0"
         id="stop3" /><stop
         style="stop-color:#646464;stop-opacity:0;"
         offset="1"
         id="stop4" /></linearGradient><radialGradient
       inkscape:collect="always"
       xlink:href="#linearGradient3"
       id="radialGradient4"
       cx="111.8036"
       cy="101.00694"
       fx="111.8036"
       fy="101.00694"
       r="52.12603"
       gradientTransform="matrix(1,0,0,0.63312449,-12.082463,25.831712)"
       gradientUnits="userSpaceOnUse" /><radialGradient
       inkscape:collect="always"
       xlink:href="#linearGradient8"
       id="radialGradient9"
       cx="145.22134"
       cy="17.710939"
       fx="145.22134"
       fy="17.710939"
       r="15.411513"
       gradientTransform="matrix(1,0,0,0.35625933,0,11.401252)"
       gradientUnits="userSpaceOnUse" /></defs><g
     inkscape:label="Layer 1"
     inkscape:groupmode="layer"
     id="layer1"
     transform="translate(-74.017267,-56.065775)"><g
       id="g10"><g
         id="g6"><path
           style="fill:#646464;fill-opacity:1;stroke:#000000;stroke-width:1.4;stroke-dasharray:none;stroke-opacity:1"
           d="m 75.564602,85.031825 h 20.493074 v -1.385448 h 46.816574 v 1.933855 h 9.87131 v 12.064936 h -9.78472 v 1.41431 h -7.18701 c -0.31406,2.560982 0.50257,10.219412 7.10042,15.846052 v 11.31449 h -46.8743 v -11.40108 c 4.87865,-3.31059 8.9378,-9.24536 7.10042,-15.528555 H 95.884496 V 97.962666 C 83.351797,97.743582 71.391025,87.903373 75.564602,85.031825 Z"
           id="path4"
           sodipodi:nodetypes="cccccccccccccccccc" /><path
           id="rect3"
           style="fill:url(#radialGradient4);stroke:none;stroke-width:1.4;stroke-dasharray:none;stroke-opacity:1"
           d="m 96.057703,83.646574 v 1.385445 H 75.56438 c -4.173573,2.871545 7.78752,12.711393 20.320207,12.930477 v 1.328084 h 7.215583 c 1.83737,6.28319 -2.2217,12.21766 -7.100345,15.52825 v 7.96489 h 46.874655 v -7.87807 c -6.59784,-5.62664 -7.41492,-13.28508 -7.10086,-15.846063 h 7.18716 v -1.414384 h 8.88628 V 85.580306 h -8.97258 v -1.933732 z" /><path
           style="fill:none;fill-opacity:1;stroke:#000000;stroke-width:1.4;stroke-dasharray:none;stroke-opacity:1"
           d="m 75.564602,85.031825 h 20.493074 v -1.385448 h 46.816574 v 1.933855 h 9.87131 v 12.064936 h -9.78472 v 1.41431 h -7.18701 c -0.31406,2.560982 0.50257,10.219412 7.10042,15.846052 v 11.31449 h -46.8743 v -11.40108 c 4.87865,-3.31059 8.9378,-9.24536 7.10042,-15.528555 H 95.884496 V 97.962666 C 83.351797,97.743582 71.391025,87.903373 75.564602,85.031825 Z"
           id="path5"
           sodipodi:nodetypes="cccccccccccccccccc" /><rect
           style="fill:none;fill-opacity:1;stroke:#000000;stroke-width:1.39606;stroke-dasharray:none;stroke-opacity:1"
           id="rect5"
           width="46.231617"
           height="0.90195996"
           x="96.229134"
           y="115.51617" /><rect
           style="fill:none;fill-opacity:1;stroke:#000000;stroke-width:1.16553;stroke-dasharray:none;stroke-opacity:1"
           id="rect6"
           width="0.039643459"
           height="12.992131"
           x="96.128052"
           y="85.141884" /><rect
           style="fill:none;fill-opacity:1;stroke:#000000;stroke-width:1.16553;stroke-dasharray:none;stroke-opacity:1"
           id="rect6-2"
           width="0.039643459"
           height="12.992131"
           x="142.75291"
           y="85.171547" /></g></g><g
       id="g9"
       transform="rotate(-108.11866,140.94025,59.587304)"><path
         id="rect7"
         style="fill:url(#radialGradient9);stroke:#000000;stroke-width:0.55;stroke-dasharray:none;stroke-opacity:1"
         d="m 134.73138,14.142121 h 23.93275 c -3.02057,1.92908 -5.85423,0.842134 -9.1241,6.792579 h -14.80865 v -1.32814 h -1.43915 l -1.36004,2.578648 c -2.52378,-2.942091 -1.54716,-6.513698 0,-8.948936 l 1.36004,1.839629 h 1.43915 z"
         sodipodi:nodetypes="ccccccccccc" /><path
         id="rect8"
         style="fill:#644617;fill-opacity:1;stroke:#000000;stroke-width:0.6;stroke-dasharray:none;stroke-opacity:1"
         d="m 139.5838,21.012615 h 5.71497 c -1.76745,11.460669 -0.76051,23.084537 0,34.693909 h -5.71497 c 0.54978,-11.414695 1.10268,-22.828541 0,-34.693909 z"
         sodipodi:nodetypes="ccccc" /></g></g></svg>
